<svg width="116" height="32" viewBox="0 0 116 32" fill="none" xmlns="http://www.w3.org/2000/svg">
<path d="M23.3973 10.01C24.8673 11.48 25.6772 13.36 25.8372 15.29C27.7572 13.33 29.6772 11.35 30.6672 10.26C32.2172 8.57005 32.5072 5.49008 31.0172 3.7301C30.0072 2.53011 29.4572 1.98012 28.2572 0.970129C26.4972 -0.509856 23.4173 -0.219859 21.7273 1.32012C20.9073 2.07012 19.5773 3.3501 18.1373 4.75009L23.3973 10.01Z" fill="#D8E92F"/>
<path d="M25.8374 16.71C25.6774 18.6399 24.8674 20.5199 23.3974 21.9899L18.1475 27.2399C19.5874 28.6398 20.9274 29.9198 21.7374 30.6698C23.4274 32.2198 26.5074 32.5098 28.2674 31.0198C29.4673 30.0098 30.0173 29.4598 31.0273 28.2598C32.5073 26.4999 32.2173 23.4199 30.6773 21.7299C29.6773 20.6499 27.7574 18.6699 25.8374 16.71Z" fill="#D8E92F"/>
<path d="M21.2773 12.1301L15.9974 6.86015C13.8174 4.72017 11.4774 2.4502 10.2574 1.33021C8.57747 -0.219776 5.4875 -0.509773 3.73752 0.970211C2.53753 1.9802 1.98754 2.53019 0.977546 3.73018C-0.502438 5.49016 -0.212441 8.57013 1.32754 10.2601C2.43753 11.4701 4.71751 13.8201 6.85748 16.0001C4.71751 18.18 2.44753 20.52 1.32754 21.74C-0.222441 23.43 -0.512438 26.5099 0.977546 28.2699C1.98754 29.4699 2.53753 30.0199 3.73752 31.0299C5.4975 32.5099 8.57747 32.2199 10.2674 30.6799C11.4774 29.5699 13.8274 27.2899 16.0074 25.15L21.2873 19.87C23.4073 17.73 23.4073 14.2701 21.2773 12.1301Z" fill="#10DCAB"/>
<path d="M48.717 9.60992C52.317 9.60992 54.077 11.4499 54.077 14.7599V21.4598C54.077 22.1298 53.867 22.3698 53.167 22.3698H50.547C49.877 22.3698 49.637 22.1298 49.637 21.4598V14.9299C49.637 14.0499 49.157 13.6199 48.207 13.6199C47.777 13.6199 47.417 13.6399 47.157 13.7199C47.107 13.7399 47.087 13.7699 47.087 13.8199V21.4698C47.087 22.1398 46.877 22.3798 46.1771 22.3798H43.5571C42.8671 22.3798 42.6471 22.1398 42.6471 21.4698V11.9299C42.6471 11.1399 42.8371 10.8099 43.6271 10.4999C45.1671 9.88992 46.857 9.60992 48.717 9.60992ZM55.157 14.8299C55.157 11.5599 57.2569 9.60992 61.0669 9.60992C64.9069 9.60992 66.9768 11.5199 66.9768 14.8299V17.4998C66.9768 20.8098 64.9069 22.7198 61.0669 22.7198C57.2569 22.7198 55.157 20.7698 55.157 17.4998V14.8299ZM62.5669 14.7099C62.5669 13.8499 62.0669 13.4199 61.0669 13.4199C60.0869 13.4199 59.5869 13.8499 59.5869 14.7099V17.6198C59.5869 18.4498 60.0869 18.8798 61.0669 18.8798C62.0669 18.8798 62.5669 18.4498 62.5669 17.6198V14.7099ZM78.5667 9.96992C79.2567 9.96992 79.4767 10.2099 79.4767 10.8799V20.4198C79.4767 21.2098 79.2867 21.5398 78.4967 21.8498C76.9967 22.4498 75.3067 22.7298 73.4168 22.7298C69.8168 22.7298 68.0568 20.8898 68.0568 17.5798V10.8799C68.0568 10.2099 68.2668 9.96992 68.9668 9.96992H71.5868C72.2768 9.96992 72.4968 10.2099 72.4968 10.8799V17.4098C72.4968 18.2898 72.9768 18.7198 73.9268 18.7198C74.2368 18.7198 74.5668 18.6998 74.8767 18.6198C74.9967 18.5998 75.0468 18.5198 75.0468 18.4098V10.8799C75.0468 10.2099 75.2867 9.96992 75.9567 9.96992H78.5667ZM82.7067 4.71997C83.0167 4.71997 83.1367 4.83997 83.1367 5.14997V10.4199C84.1167 9.96992 85.3766 9.74992 86.8766 9.74992C90.0466 9.74992 91.6166 11.2999 91.6166 14.4199V21.9298C91.6166 22.2198 91.4766 22.3598 91.1866 22.3598H90.4266C90.1366 22.3598 89.9966 22.2198 89.9966 21.9298V14.4699C89.9966 12.2999 88.8766 11.2299 86.6566 11.2299C85.2266 11.2299 84.0567 11.4699 83.1267 11.9199V21.9298C83.1267 22.2398 83.0067 22.3598 82.6967 22.3598H81.9567C81.5967 22.3598 81.5267 22.2398 81.5267 21.9298V5.14997C81.5267 4.83997 81.5967 4.71997 81.9567 4.71997H82.7067ZM98.6865 9.74992C102.216 9.74992 103.456 11.5899 103.456 14.4699V20.7198C103.456 21.5498 103.266 21.7898 102.596 22.0798C101.646 22.4898 100.336 22.6998 98.6365 22.6998C96.6565 22.6998 95.3265 22.4098 94.5865 21.7898C93.8465 21.1898 93.4866 20.2598 93.4866 18.9998C93.4866 16.3098 94.9365 15.3099 98.7265 15.3099C99.3665 15.3099 100.416 15.3799 101.846 15.5499V14.4499C101.846 12.3799 101.036 11.1799 98.6265 11.1799C97.0565 11.1799 95.9365 11.7499 95.2865 12.9199C95.1165 13.1599 94.9065 13.2299 94.6865 13.1099L94.1166 12.8699C93.8066 12.7499 93.7365 12.5599 93.8765 12.2499C94.7765 10.5899 96.3665 9.74992 98.6865 9.74992ZM101.856 16.8598C100.426 16.7198 99.3265 16.6398 98.5665 16.6398C96.0665 16.6398 95.1365 17.3298 95.1365 18.9798C95.1365 20.5998 95.8765 21.3598 98.5265 21.3598C99.7465 21.3598 100.696 21.2398 101.406 20.9798C101.786 20.8098 101.856 20.7398 101.856 20.2898V16.8598ZM115.466 10.1099C115.756 10.1099 115.896 10.2499 115.896 10.5399V20.5998C115.896 21.3398 115.726 21.5998 114.986 21.9098C113.726 22.4298 112.216 22.6998 110.526 22.6998C107.376 22.6998 105.806 21.1498 105.806 18.0498V10.5399C105.806 10.2299 105.926 10.1099 106.236 10.1099H106.976C107.336 10.1099 107.406 10.2299 107.406 10.5399V17.9798C107.406 20.1498 108.526 21.2498 110.746 21.2498C111.936 21.2498 112.966 21.0798 113.846 20.7298C114.136 20.6098 114.276 20.3698 114.276 20.0598V10.5499C114.276 10.2599 114.416 10.1199 114.706 10.1199H115.466V10.1099Z" fill="white"/>
</svg>
